<?xml version="1.0" encoding="utf-8"?>
<!-- Generator: Adobe Illustrator 25.3.0, SVG Export Plug-In . SVG Version: 6.00 Build 0)  -->
<svg version="1.1" id="Layer_1" xmlns="http://www.w3.org/2000/svg" xmlns:xlink="http://www.w3.org/1999/xlink" x="0px" y="0px"
	 viewBox="0 0 77.7 75.3" style="enable-background:new 0 0 77.7 75.3;" xml:space="preserve">
<style type="text/css">
	.st0{fill:#FFFFFF;}
	.st1{fill:url(#SVGID_1_);}
	.st2{fill:url(#SVGID_2_);}
	.st3{fill:url(#SVGID_3_);}
	.st4{fill:url(#SVGID_4_);}
	.st5{fill:url(#SVGID_5_);}
	.st6{fill:url(#SVGID_6_);}
	.st7{fill:url(#SVGID_7_);}
	.st8{fill:url(#SVGID_8_);}
	.st9{fill:url(#SVGID_9_);}
	.st10{fill:url(#SVGID_10_);}
	.st11{fill:none;}
	.st12{fill:url(#SVGID_11_);}
	.st13{fill:url(#SVGID_12_);}
	.st14{fill:url(#SVGID_13_);}
	.st15{fill:url(#SVGID_14_);}
	.st16{fill:url(#SVGID_15_);}
	.st17{fill:url(#SVGID_16_);}
</style>
<g id="BACKGROUND">
	<rect x="729.2" y="97.4" class="st0" width="500" height="500"/>
</g>
<g id="OBJECT">
	<g>
		
			<linearGradient id="SVGID_1_" gradientUnits="userSpaceOnUse" x1="68.7827" y1="43.3931" x2="68.7827" y2="52.9869" gradientTransform="matrix(1 0 0 -1 0 78)">
			<stop  offset="0" style="stop-color:#FFC024"/>
			<stop  offset="1" style="stop-color:#FF1791"/>
		</linearGradient>
		<path class="st1" d="M70,25.7c0.1,0,0.1,0,0.2,0.1v8.9c-0.1,0-0.2-0.1-0.4-0.1l-1.2-0.3L67.4,25L70,25.7z"/>
		
			<linearGradient id="SVGID_2_" gradientUnits="userSpaceOnUse" x1="69.8228" y1="45.7613" x2="69.8228" y2="50.5613" gradientTransform="matrix(1 0 0 -1 0 78)">
			<stop  offset="0" style="stop-color:#FFC024"/>
			<stop  offset="1" style="stop-color:#FF1791"/>
		</linearGradient>
		<path class="st2" d="M70.2,27.6v4.6l-0.7-4.8C69.8,27.5,70,27.6,70.2,27.6z"/>
		
			<linearGradient id="SVGID_3_" gradientUnits="userSpaceOnUse" x1="9.7405" y1="30.0723" x2="9.7405" y2="42.8563" gradientTransform="matrix(1 0 0 -1 0 78)">
			<stop  offset="0" style="stop-color:#FFC024"/>
			<stop  offset="1" style="stop-color:#FF1791"/>
		</linearGradient>
		<path class="st3" d="M11.6,35.1L10,46.4l-0.7,0.4c-0.5,0.4-1,0.7-1.5,1.1V37.3c0.2-0.1,0.3-0.2,0.5-0.3L11.6,35.1z"/>
		
			<linearGradient id="SVGID_4_" gradientUnits="userSpaceOnUse" x1="8.6507" y1="32.3" x2="8.6507" y2="39.415" gradientTransform="matrix(1 0 0 -1 0 78)">
			<stop  offset="0" style="stop-color:#FFC024"/>
			<stop  offset="1" style="stop-color:#FF1791"/>
		</linearGradient>
		<path class="st4" d="M9.3,38.6l-0.9,6.8c-0.2,0.1-0.3,0.2-0.5,0.3v-6.2C8.4,39.2,8.8,38.9,9.3,38.6z"/>
		
			<linearGradient id="SVGID_5_" gradientUnits="userSpaceOnUse" x1="39.212" y1="-3.2427" x2="39.212" y2="128.9012" gradientTransform="matrix(1 0 0 -1 0 78)">
			<stop  offset="7.233796e-04" style="stop-color:#E2FF63"/>
			<stop  offset="1" style="stop-color:#E02DF9"/>
		</linearGradient>
		<path class="st5" d="M69.6,50.1L69.6,50.1l-3.2,1.7L65,52.5l0,0c-0.4,0.2-0.8,0.4-1.2,0.5c0,0-1,0.4-1.2,0.5
			c-1.3,0.5-2.6,1.1-3.9,1.6l-0.3,0.1c-0.1,0.1-0.3,0.1-0.4,0.2c-2,0.7-4,1.4-6.1,2.1c-0.3,0.1-0.7,0.2-1.1,0.3
			c-1.1,0.3-2.2,0.6-3.4,0.9c-0.4,0.1-0.8,0.2-1.2,0.3c0,0,0,0-0.1,0c-0.7,0.2-1.3,0.3-1.8,0.4c-0.5,0.1-1,0.2-1.6,0.4
			c-0.1,0-0.3,0.1-0.3,0.1c-7.8,1.7-15.6,2.6-22.4,2.6c-2.1,0-4.1-0.1-5.8-0.3c1.1,0.4,2.3,0.6,3.5,0.6h42.1
			c5.5,0,10.1-4.6,10.1-10.2v-3C70,49.8,69.8,50,69.6,50.1z M60.1,0H18C12.4,0,8,4.6,8,10.2v42c0.6,0.2,1.2,0.3,1.8,0.4
			c0.6,0.1,1.3,0.2,2.1,0.4c0.7,0.1,1.5,0.2,2.3,0.3c1.6,0.1,3.4,0.2,5.3,0.2c4,0,8.3-0.3,12.9-1c2.7-0.4,5.4-0.9,8.2-1.5
			c0.2,0,0.4-0.1,0.5-0.1c4.9-1.1,9.5-2.4,13.8-3.9c3.3-1.2,6.2-2.4,8.9-3.7c1.1-0.5,2-1,3-1.6c0.5-0.3,1-0.6,1.4-0.8
			c0.9-0.5,1.7-1.1,2.5-1.7v-29C70.2,4.6,65.6,0,60.1,0z"/>
		
			<linearGradient id="SVGID_6_" gradientUnits="userSpaceOnUse" x1="39.0139" y1="117.733" x2="39.0139" y2="-94.0386" gradientTransform="matrix(1 0 0 -1 0 78)">
			<stop  offset="3.616898e-03" style="stop-color:#D3E08C"/>
			<stop  offset="0.1427" style="stop-color:#D3DC8F"/>
			<stop  offset="0.2922" style="stop-color:#D4CF97"/>
			<stop  offset="0.4464" style="stop-color:#D6B9A4"/>
			<stop  offset="0.604" style="stop-color:#D89BB6"/>
			<stop  offset="0.7642" style="stop-color:#DB74CD"/>
			<stop  offset="0.9243" style="stop-color:#DE46EA"/>
			<stop  offset="1" style="stop-color:#E02DF9"/>
		</linearGradient>
		<path class="st6" d="M66.4,10.2v31.5c-0.9,0.5-1.9,1.1-3,1.6c-2.7,1.3-5.6,2.6-8.9,3.7c-4.4,1.5-8.9,2.9-13.8,3.9
			c-0.2,0-0.3,0.1-0.5,0.1c-2.8,0.6-5.5,1.1-8.2,1.5c-4.6,0.6-8.9,1-12.9,1c-1.9,0-3.6-0.1-5.3-0.2c-0.8-0.1-1.5-0.2-2.3-0.3
			c0-0.1,0-0.2,0-0.3V10.2c0-3.5,2.8-6.3,6.2-6.3H60C63.5,3.9,66.4,6.7,66.4,10.2z"/>
		
			<linearGradient id="SVGID_7_" gradientUnits="userSpaceOnUse" x1="56.3501" y1="40.3224" x2="56.3501" y2="1.6133" gradientTransform="matrix(1 0 0 -1 0 78)">
			<stop  offset="3.616898e-03" style="stop-color:#D3E08C"/>
			<stop  offset="0.1427" style="stop-color:#D3DC8F"/>
			<stop  offset="0.2922" style="stop-color:#D4CF97"/>
			<stop  offset="0.4464" style="stop-color:#D6B9A4"/>
			<stop  offset="0.604" style="stop-color:#D89BB6"/>
			<stop  offset="0.7642" style="stop-color:#DB74CD"/>
			<stop  offset="0.9243" style="stop-color:#DE46EA"/>
			<stop  offset="1" style="stop-color:#E02DF9"/>
		</linearGradient>
		<path class="st7" d="M65,52.5l1.4-0.7v0.9c0,3.5-2.8,6.3-6.2,6.3H46.3c0,0,0,0,0.1,0c0.4-0.1,0.8-0.2,1.2-0.3
			c1.2-0.3,2.3-0.6,3.4-0.9c0.4-0.1,0.7-0.2,1.1-0.3c2.1-0.6,4.2-1.3,6.1-2.1c0.1-0.1,0.3-0.1,0.4-0.2l0.3-0.1
			c1.3-0.5,2.6-1,3.9-1.6c0.2-0.1,1.2-0.5,1.2-0.5C64.2,52.9,64.6,52.7,65,52.5L65,52.5z"/>
		
			<linearGradient id="SVGID_8_" gradientUnits="userSpaceOnUse" x1="35.0018" y1="40.3504" x2="35.0018" y2="19.0996" gradientTransform="matrix(1 0 0 -1 0 78)">
			<stop  offset="0" style="stop-color:#AB90AE"/>
			<stop  offset="1" style="stop-color:#E02DF9"/>
		</linearGradient>
		<ellipse class="st8" cx="35" cy="44.1" rx="3" ry="3"/>
		
			<linearGradient id="SVGID_9_" gradientUnits="userSpaceOnUse" x1="46.196" y1="40.3504" x2="46.196" y2="19.0996" gradientTransform="matrix(1 0 0 -1 0 78)">
			<stop  offset="0" style="stop-color:#AB90AE"/>
			<stop  offset="1" style="stop-color:#E02DF9"/>
		</linearGradient>
		<ellipse class="st9" cx="46.2" cy="44.1" rx="3" ry="3"/>
		
			<linearGradient id="SVGID_10_" gradientUnits="userSpaceOnUse" x1="22.3216" y1="60.6057" x2="22.3216" y2="48.5985" gradientTransform="matrix(1 0 0 -1 0 78)">
			<stop  offset="0" style="stop-color:#AB90AE"/>
			<stop  offset="1" style="stop-color:#E02DF9"/>
		</linearGradient>
		<path class="st10" d="M26.6,22.5h-2.1l-1.3-4.6h-4.1c-0.6,0-1.1-0.5-1.1-1.1l0,0c0-0.6,0.5-1.1,1.1-1.1h3.4c1.3,0,2.5,0.9,2.9,2.1
			l0,0l0,0L26.6,22.5z"/>
		<line class="st11" x1="25.3" y1="17.9" x2="25.3" y2="17.9"/>
		
			<linearGradient id="SVGID_11_" gradientUnits="userSpaceOnUse" x1="41.1438" y1="64.0666" x2="41.1438" y2="15.4079" gradientTransform="matrix(1 0 0 -1 0 78)">
			<stop  offset="0" style="stop-color:#AB90AE"/>
			<stop  offset="1" style="stop-color:#E02DF9"/>
		</linearGradient>
		<path class="st12" d="M24.5,22.5L29.3,41h21.2l7.3-18.6H24.5V22.5z M44.9,31.9h-4.5v4.5c0,0.4-0.3,0.7-0.7,0.7l0,0
			c-0.4,0-0.7-0.3-0.7-0.7v-4.5h-4.5c-0.4,0-0.7-0.3-0.7-0.7c0-0.4,0.3-0.7,0.7-0.7h4.5V26c0-0.4,0.3-0.7,0.7-0.7l0,0
			c0.4,0,0.7,0.3,0.7,0.7v4.5h4.5c0.4,0,0.7,0.3,0.7,0.7C45.7,31.5,45.3,31.9,44.9,31.9z"/>
		
			<linearGradient id="SVGID_12_" gradientUnits="userSpaceOnUse" x1="2.3106" y1="26.4916" x2="2.3106" y2="26.6714" gradientTransform="matrix(1 0 0 -1 0 78)">
			<stop  offset="0" style="stop-color:#FFC024"/>
			<stop  offset="1" style="stop-color:#FF1791"/>
		</linearGradient>
		<path class="st13" d="M2.4,51.5L2.4,51.5c-0.1-0.1-0.1-0.1-0.2-0.2C2.2,51.4,2.3,51.4,2.4,51.5C2.3,51.5,2.4,51.5,2.4,51.5z"/>
		
			<linearGradient id="SVGID_13_" gradientUnits="userSpaceOnUse" x1="-4.5784" y1="27.1262" x2="16.7114" y2="38.7369" gradientTransform="matrix(1 0 0 -1 0 78)">
			<stop  offset="2.356151e-03" style="stop-color:#E2FF63"/>
			<stop  offset="1" style="stop-color:#E02DF9"/>
		</linearGradient>
		<path class="st14" d="M8,39.5v6.2c-1.1,0.8-2.1,1.6-3,2.4c-0.5,0.5-1,1-1.4,1.5c-0.1,0.1-0.1,0.2-0.2,0.3L3.3,50
			c-0.4,0.5-0.7,1.1-0.9,1.6l-0.1-0.1l-0.1-0.1l-0.1-0.1C2,51.1,1.8,51,1.7,50.9s-0.1-0.1-0.2-0.2c0,0,0-0.1-0.1-0.1
			c0,0,0-0.1-0.1-0.1c-0.1-0.1-0.1-0.2-0.2-0.3c0,0,0-0.1-0.1-0.1l0,0l0,0c0,0,0-0.1-0.1-0.1c0,0,0-0.1-0.1-0.1c0,0,0-0.1-0.1-0.1
			c0-0.1-0.1-0.2-0.1-0.3s0-0.1-0.1-0.2l0,0l0,0v-0.1l0,0C0.2,46.1,2.9,42.7,8,39.5z"/>
		
			<linearGradient id="SVGID_14_" gradientUnits="userSpaceOnUse" x1="2.2831" y1="26.4916" x2="2.2831" y2="26.6714" gradientTransform="matrix(1 0 0 -1 0 78)">
			<stop  offset="0" style="stop-color:#FFC024"/>
			<stop  offset="1" style="stop-color:#FF1791"/>
		</linearGradient>
		<path class="st15" d="M2.3,51.4C2.3,51.5,2.4,51.5,2.3,51.4L2.3,51.4C2.3,51.4,2.3,51.4,2.3,51.4C2.2,51.4,2.3,51.4,2.3,51.4z"/>
		
			<linearGradient id="SVGID_15_" gradientUnits="userSpaceOnUse" x1="65.0788" y1="48.4758" x2="78.3082" y2="45.2138" gradientTransform="matrix(1 0 0 -1 0 78)">
			<stop  offset="2.356151e-03" style="stop-color:#E2FF63"/>
			<stop  offset="1" style="stop-color:#E02DF9"/>
		</linearGradient>
		<path class="st16" d="M76,35.4c-0.4-0.4-0.9-0.7-1.5-1c0,0-0.1,0-0.1-0.1c-0.1-0.1-0.2-0.1-0.3-0.2c-0.6-0.3-1.2-0.5-1.9-0.8
			c-0.6-0.2-1.3-0.4-2-0.6l-0.1-0.5v-4.6c3.6,1.1,5.7,2.7,6.2,4.8l0,0C76.6,33.4,76.4,34.4,76,35.4z"/>
		
			<linearGradient id="SVGID_16_" gradientUnits="userSpaceOnUse" x1="97.9708" y1="43.102" x2="-11.4746" y2="16.6193" gradientTransform="matrix(1 0 0 -1 0 78)">
			<stop  offset="2.356151e-03" style="stop-color:#E2FF63"/>
			<stop  offset="1" style="stop-color:#E02DF9"/>
		</linearGradient>
		<path class="st17" d="M72.1,46.3c-0.6,0.4-1.2,0.9-1.9,1.3c-0.5,0.3-1,0.6-1.5,0.9l-2.3,1.2l-2.2,1.1c-0.4,0.2-0.8,0.3-1.1,0.5
			c-0.4,0.2-0.8,0.3-1.2,0.5c-1.2,0.5-2.5,1-3.8,1.5c-0.2,0.1-0.4,0.2-0.7,0.2c-1.9,0.7-4,1.4-6,2c-0.3,0.1-0.7,0.2-1.1,0.3
			c-1.1,0.3-2.2,0.6-3.3,0.9c-0.4,0.1-0.8,0.2-1.2,0.3c-0.6,0.2-1.2,0.3-1.8,0.4c-0.5,0.1-1,0.2-1.6,0.4c-0.1,0-0.2,0-0.3,0.1
			c-1.5,0.3-3.1,0.6-4.6,0.9c-9.2,1.7-17.6,2.1-24,1.3c-1-0.1-2-0.3-2.9-0.4c-0.5-0.1-1.1-0.2-1.6-0.3c-1-0.2-1.9-0.5-2.8-0.9
			c-2.6-1-4.3-2.5-4.7-4.3l-0.2-0.9v-0.2l-0.9-4.2l0,0l0,0c0,0.1,0,0.1,0.1,0.2c0,0.1,0.1,0.2,0.1,0.3c0,0,0,0.1,0.1,0.1
			c0,0,0,0.1,0.1,0.1c0,0,0,0.1,0.1,0.1l0,0l0,0c0,0,0,0.1,0.1,0.1c0.1,0.1,0.1,0.2,0.2,0.3c0,0,0,0.1,0.1,0.1c0,0,0,0.1,0.1,0.1
			c0,0.1,0.1,0.1,0.2,0.2c0.1,0.1,0.2,0.2,0.3,0.4L2.3,51c0.1,0.1,0.1,0.1,0.2,0.2l0,0c0.4,0.4,0.9,0.7,1.5,1c0,0,0.1,0,0.1,0.1
			c0.6,0.3,1.4,0.7,2.2,0.9c0.4,0.1,0.7,0.2,1.1,0.4C7.5,54,7.8,54,8.1,54.1c0.4,0.1,0.9,0.2,1.4,0.3c0.9,0.2,1.8,0.3,2.8,0.4
			c0.6,0.1,1.1,0.1,1.7,0.2c5.2,0.5,11.5,0.2,18.5-0.8c2.7-0.4,5.4-0.9,8.3-1.5c0.2,0,0.4-0.1,0.5-0.1c5.1-1.1,9.7-2.5,14-4
			c3.4-1.2,6.3-2.5,9-3.8c0.8-0.4,1.5-0.7,2.2-1.1c0.8-0.5,1.6-0.9,2.3-1.4c0.5-0.3,1-0.7,1.5-1c0.4-0.3,0.8-0.5,1.1-0.8
			c0.8-0.6,1.5-1.2,2.1-1.8s1.1-1.2,1.6-1.7l0.1-0.1c0.4-0.5,0.7-1,0.9-1.6c0.5-1,0.6-2,0.4-2.9l0.9,4.3v0.2l0.2,0.9
			C78.1,40.5,76,43.4,72.1,46.3z"/>
	</g>
</g>
<g id="TEXT">
	<g>
		<path class="st0" d="M2.4,74.5H0.3v-8.2h3.4c0.9,0,1.6,0.2,2.1,0.7s0.7,1.1,0.7,2s-0.2,1.5-0.7,2s-1.2,0.7-2.1,0.7H2.4V74.5z
			 M2.4,70.1h0.7c0.8,0,1.2-0.3,1.2-1s-0.4-1-1.2-1H2.4V70.1z"/>
		<path class="st0" d="M14.4,74.5h-2.6l-2-3.1v3.1H7.6v-8.2h3.3c0.5,0,0.9,0.1,1.2,0.2s0.6,0.3,0.8,0.5s0.4,0.5,0.5,0.8
			c0.1,0.3,0.2,0.6,0.2,1c0,0.6-0.2,1.1-0.5,1.5s-0.7,0.6-1.3,0.8L14.4,74.5z M9.8,70h0.4c0.4,0,0.7-0.1,1-0.3
			c0.2-0.2,0.3-0.4,0.3-0.7c0-0.3-0.1-0.6-0.3-0.7c-0.2-0.2-0.5-0.3-1-0.3H9.8V70z"/>
		<path class="st0" d="M14.8,70.4c0-0.6,0.1-1.2,0.3-1.7c0.2-0.5,0.5-1,0.9-1.4s0.9-0.7,1.4-0.9s1.2-0.3,1.8-0.3
			c0.7,0,1.3,0.1,1.8,0.3c0.6,0.2,1,0.5,1.4,0.9c0.4,0.4,0.7,0.8,0.9,1.4c0.2,0.5,0.3,1.1,0.3,1.7s-0.1,1.2-0.3,1.7s-0.5,1-0.9,1.4
			c-0.4,0.4-0.9,0.7-1.4,0.9c-0.6,0.2-1.2,0.3-1.8,0.3c-0.7,0-1.3-0.1-1.8-0.3c-0.6-0.2-1-0.5-1.4-0.9c-0.4-0.4-0.7-0.8-0.9-1.4
			C14.9,71.6,14.8,71,14.8,70.4z M16.9,70.4c0,0.3,0.1,0.6,0.2,0.9s0.3,0.5,0.5,0.7c0.2,0.2,0.5,0.4,0.7,0.5
			c0.3,0.1,0.6,0.2,0.9,0.2c0.3,0,0.6-0.1,0.9-0.2c0.3-0.1,0.5-0.3,0.7-0.5c0.2-0.2,0.4-0.4,0.5-0.7c0.1-0.3,0.2-0.6,0.2-0.9
			s-0.1-0.6-0.2-0.9S21,69,20.8,68.8c-0.2-0.2-0.5-0.4-0.7-0.5c-0.3-0.1-0.6-0.2-0.9-0.2c-0.3,0-0.6,0.1-0.9,0.2
			c-0.3,0.1-0.5,0.3-0.7,0.5c-0.2,0.2-0.4,0.4-0.5,0.7C17,69.8,16.9,70.1,16.9,70.4z"/>
		<path class="st0" d="M27,70.1l-2.5-3.8h2.6l1.1,2.1l1.4-2.1h2.6l-2.7,3.8l3,4.4h-2.6l-1.6-2.7l-1.9,2.7h-2.6L27,70.1z"/>
		<path class="st0" d="M35.3,70.6l-3-4.3h2.5l1.5,2.2l1.5-2.2h2.5l-3,4.3v3.9h-2.1L35.3,70.6L35.3,70.6z"/>
		<path class="st0" d="M49.3,68.4c-0.2-0.2-0.5-0.3-0.7-0.4s-0.5-0.1-0.7-0.1c-0.3,0-0.5,0.1-0.7,0.2s-0.3,0.3-0.3,0.5
			c0,0.1,0,0.3,0.1,0.4c0.1,0.1,0.2,0.2,0.3,0.2c0.1,0.1,0.3,0.1,0.5,0.2c0.2,0.1,0.4,0.1,0.5,0.2c0.7,0.2,1.2,0.5,1.5,0.9
			s0.5,0.9,0.5,1.5c0,0.4-0.1,0.8-0.2,1.1c-0.1,0.3-0.3,0.6-0.6,0.9c-0.3,0.2-0.6,0.4-1,0.6c-0.4,0.1-0.8,0.2-1.3,0.2
			c-1,0-2-0.3-2.9-0.9l0.9-1.7c0.3,0.3,0.6,0.5,0.9,0.6S46.7,73,47,73c0.3,0,0.6-0.1,0.8-0.2c0.2-0.2,0.3-0.3,0.3-0.5
			c0-0.1,0-0.2-0.1-0.3c0-0.1-0.1-0.2-0.2-0.2c-0.1-0.1-0.2-0.1-0.4-0.2s-0.4-0.1-0.6-0.2c-0.1-0.4-0.3-0.4-0.6-0.6
			c-0.3-0.1-0.5-0.2-0.7-0.4c-0.2-0.2-0.4-0.4-0.5-0.7c-0.1-0.3-0.2-0.6-0.2-1s0.1-0.8,0.2-1.1c0.1-0.3,0.3-0.6,0.6-0.8
			c0.2-0.2,0.5-0.4,0.9-0.5s0.7-0.2,1.2-0.2c0.4,0,0.8,0.1,1.3,0.2c0.4,0.1,0.9,0.3,1.3,0.5L49.3,68.4z"/>
		<path class="st0" d="M53.9,69.5H57v-3.2h2.1v8.2H57v-3.4h-3.1v3.4h-2.1v-8.2h2.1C53.9,66.3,53.9,69.5,53.9,69.5z"/>
		<path class="st0" d="M60.4,70.4c0-0.6,0.1-1.2,0.3-1.7s0.5-1,0.9-1.4s0.9-0.7,1.4-0.9c0.6-0.2,1.2-0.3,1.8-0.3
			c0.7,0,1.3,0.1,1.8,0.3c0.6,0.2,1,0.5,1.4,0.9c0.4,0.4,0.7,0.8,0.9,1.4c0.2,0.5,0.3,1.1,0.3,1.7s-0.1,1.2-0.3,1.7
			c-0.2,0.5-0.5,1-0.9,1.4c-0.4,0.4-0.9,0.7-1.4,0.9c-0.6,0.2-1.2,0.3-1.8,0.3c-0.7,0-1.3-0.1-1.8-0.3c-0.6-0.2-1-0.5-1.4-0.9
			s-0.7-0.8-0.9-1.4C60.5,71.6,60.4,71,60.4,70.4z M62.6,70.4c0,0.3,0.1,0.6,0.2,0.9c0.1,0.3,0.3,0.5,0.5,0.7s0.5,0.4,0.7,0.5
			c0.3,0.1,0.6,0.2,0.9,0.2s0.6-0.1,0.9-0.2s0.5-0.3,0.7-0.5c0.2-0.2,0.4-0.4,0.5-0.7c0.1-0.3,0.2-0.6,0.2-0.9s-0.1-0.6-0.2-0.9
			c-0.1-0.3-0.3-0.5-0.5-0.7c-0.2-0.2-0.5-0.4-0.7-0.5c-0.3-0.1-0.6-0.2-0.9-0.2s-0.6,0.1-0.9,0.2c-0.3,0.1-0.5,0.3-0.7,0.5
			s-0.4,0.4-0.5,0.7C62.7,69.8,62.6,70.1,62.6,70.4z"/>
		<path class="st0" d="M72.9,74.5h-2.1v-8.2h3.4c0.9,0,1.6,0.2,2.1,0.7c0.5,0.5,0.7,1.1,0.7,2s-0.2,1.5-0.7,2
			c-0.5,0.5-1.2,0.7-2.1,0.7h-1.3V74.5z M72.9,70.1h0.7c0.8,0,1.2-0.3,1.2-1s-0.4-1-1.2-1h-0.7V70.1z"/>
	</g>
</g>
</svg>
